<?xml version="1.0" encoding="UTF-8"?>
<svg width="25px" height="25px" viewBox="0 0 25 25" version="1.1" xmlns="http://www.w3.org/2000/svg" xmlns:xlink="http://www.w3.org/1999/xlink">
    <!-- Generator: Sketch 56 (81588) - https://sketch.com -->
    <title>demography</title>
    <desc>Created with Sketch.</desc>
    <g id="demography" stroke="none" stroke-width="1" fill="none" fill-rule="evenodd">
        <path d="M10.6,13 C8.390861,13 6.6,11.209139 6.6,9 C6.6,6.790861 8.390861,5 10.6,5 C12.809139,5 14.6,6.790861 14.6,9 C14.6,11.209139 12.809139,13 10.6,13 L10.6,13 Z M10.6,11.4 C11.4574374,11.4 12.2497423,10.9425626 12.678461,10.2 C13.1071797,9.45743742 13.1071797,8.54256258 12.678461,7.79999999 C12.2497423,7.0574374 11.4574374,6.6 10.6,6.6 C9.27451661,6.6 8.20000004,7.67451661 8.20000004,9 C8.20000004,10.3254834 9.27451661,11.4 10.6,11.4 Z M16.2,20.2 C16.2,20.6418278 15.8418278,21 15.4,21 C14.9581722,21 14.6,20.6418278 14.6,20.2 L14.6,18.6 C14.6,17.2745166 13.5254834,16.2 12.2,16.2 L9,16.2 C7.6745166,16.2 6.6,17.2745166 6.6,18.6 L6.6,20.2 C6.6,20.6418278 6.2418278,21 5.8,21 C5.3581722,21 5,20.6418278 5,20.2 L5,18.6 C5,16.390861 6.790861,14.6 9,14.6 L12.2,14.6 C14.409139,14.6 16.2,16.390861 16.2,18.6 L16.2,20.2 Z M17,16.2 C16.5581722,16.2 16.2,15.8418278 16.2,15.4 C16.2,14.9581722 16.5581722,14.6 17,14.6 C19.209139,14.6 21,16.390861 21,18.6 L21,20.2 C21,20.6418278 20.6418278,21 20.2,21 C19.7581722,21 19.4,20.6418278 19.4,20.2 L19.4,18.6 C19.4,17.2745166 18.3254834,16.2 17,16.2 Z M15.4,13 C14.9581722,13 14.6,12.6418278 14.6,12.2 C14.6,11.7581722 14.9581722,11.4 15.4,11.4 C16.7254834,11.4 17.8,10.3254834 17.8,9 C17.8,7.67451661 16.7254834,6.60000002 15.4,6.6 C14.9581722,6.6 14.6,6.2418278 14.6,5.8 C14.6,5.3581722 14.9581722,5 15.4,5 C17.609139,5 19.4,6.790861 19.4,9 C19.4,11.209139 17.609139,13 15.4,13 L15.4,13 Z" id="Shape" fill="#003262" fill-rule="nonzero"></path>
    </g>
</svg>