<?xml version="1.0" encoding="UTF-8"?>
<svg width="25px" height="25px" viewBox="0 0 25 25" version="1.1" xmlns="http://www.w3.org/2000/svg" xmlns:xlink="http://www.w3.org/1999/xlink">
    <!-- Generator: Sketch 56 (81588) - https://sketch.com -->
    <title>geography</title>
    <desc>Created with Sketch.</desc>
    <g id="geography" stroke="none" stroke-width="1" fill="none" fill-rule="evenodd">
        <path d="M6.648,13.8 C6.94706786,16.1742067 8.54565385,18.1832405 10.792,19.008 C10.1560258,17.3448463 9.82539476,15.5805772 9.816,13.8 L6.648,13.8 Z M6.648,12.2 L9.816,12.2 C9.82539476,10.4194228 10.1560258,8.65515369 10.792,6.992 C8.54565385,7.8167595 6.94706786,9.82579326 6.648,12.2 L6.648,12.2 Z M19.352,12.2 C19.0529321,9.82579326 17.4543461,7.8167595 15.208,6.992 C15.8439742,8.65515369 16.1746052,10.4194228 16.184,12.2 L19.352,12.2 Z M19.352,13.8 L16.184,13.8 C16.1746052,15.5805772 15.8439742,17.3448463 15.208,19.008 C17.4543461,18.1832405 19.0529321,16.1742067 19.352,13.8 Z M11.416,13.8 C11.544,16.96 12.4,19.4 13,19.4 C13.6,19.4 14.456,16.96 14.584,13.8 L11.416,13.8 L11.416,13.8 Z M11.416,12.2 L14.584,12.2 C14.456,9.04 13.6,6.6 13,6.6 C12.4,6.6 11.544,9.04 11.416,12.2 L11.416,12.2 Z M13,21 C8.581722,21 5,17.418278 5,13 C5,8.581722 8.581722,5 13,5 C17.418278,5 21,8.581722 21,13 C21,17.418278 17.418278,21 13,21 Z" id="Shape" fill="#003262" fill-rule="nonzero"></path>
    </g>
</svg>